<?xml version="1.0" standalone="no"?>
<!DOCTYPE svg PUBLIC "-//W3C//DTD SVG 20010904//EN"
 "http://www.w3.org/TR/2001/REC-SVG-20010904/DTD/svg10.dtd">
<svg version="1.0" xmlns="http://www.w3.org/2000/svg"
 width="2588.000000pt" height="2588.000000pt" viewBox="0 0 2588.000000 2588.000000"
 preserveAspectRatio="xMidYMid meet">

<g transform="translate(0.000000,2588.000000) scale(0.100000,-0.100000)"
fill="#000000" stroke="none">
<path d="M5537 24410 c-1 -3 -1 -647 1 -1431 l2 -1426 2418 0 c1329 0 2441 2
2470 5 l52 4 0 1427 0 1426 -2471 0 c-1359 0 -2472 -2 -2472 -5z"/>
<path d="M17425 20509 c-38 -4 -104 -12 -145 -18 -322 -46 -449 -51 -655 -26
-66 8 -176 21 -245 30 -182 22 -261 20 -288 -6 -37 -34 -68 -90 -106 -194 -37
-101 -91 -243 -106 -280 -4 -11 -29 -76 -55 -145 -25 -69 -50 -134 -55 -145
-8 -20 -56 -143 -70 -180 -4 -11 -17 -42 -28 -70 -12 -27 -39 -95 -61 -150
-54 -136 -99 -243 -117 -282 -8 -18 -26 -63 -40 -100 -14 -37 -34 -85 -44
-108 -10 -22 -61 -148 -114 -280 -54 -132 -101 -249 -105 -260 -5 -11 -16 -36
-24 -55 -8 -19 -31 -78 -52 -130 -20 -52 -46 -115 -57 -139 -11 -23 -35 -83
-53 -131 -18 -48 -42 -108 -53 -131 -11 -24 -32 -75 -47 -114 -15 -38 -74
-187 -132 -330 -110 -274 -112 -280 -136 -335 -8 -19 -58 -145 -111 -280 -54
-135 -101 -254 -106 -265 -13 -27 -153 -385 -180 -460 -12 -33 -41 -114 -65
-180 -43 -118 -83 -228 -145 -395 -17 -47 -51 -139 -75 -205 -73 -204 -160
-442 -175 -480 -5 -11 -20 -51 -33 -90 -41 -113 -96 -266 -117 -322 -24 -63
-49 -132 -85 -233 -15 -41 -31 -84 -35 -95 -24 -60 -47 -122 -85 -230 -41
-114 -74 -203 -145 -395 -18 -47 -35 -96 -40 -110 -8 -24 -38 -105 -116 -317
-20 -54 -55 -152 -79 -218 -43 -120 -85 -235 -152 -415 -33 -89 -59 -160 -105
-290 -11 -30 -24 -64 -28 -75 -5 -11 -34 -90 -66 -175 -126 -338 -134 -378
-88 -421 l26 -24 783 -3 783 -2 34 39 c67 79 152 283 243 586 15 50 31 104 36
120 5 17 36 127 70 245 33 118 69 247 80 285 11 39 28 93 39 120 10 28 33 88
50 135 47 126 129 285 180 349 29 36 63 65 95 81 l50 25 1760 0 c1996 0 1789
10 1891 -87 144 -136 276 -423 414 -898 12 -41 26 -86 30 -100 5 -14 21 -65
35 -115 30 -102 62 -200 75 -230 4 -11 29 -76 55 -145 67 -177 130 -295 190
-357 l51 -53 90 0 c49 0 202 9 339 20 310 25 389 25 690 0 321 -26 449 -26
493 0 25 16 32 26 32 52 0 26 -39 145 -80 243 -5 11 -30 76 -55 145 -26 69
-51 134 -55 145 -5 11 -54 139 -110 285 -56 146 -110 284 -121 307 -10 24 -19
46 -19 51 0 4 -52 140 -116 302 -63 162 -129 331 -145 375 -17 44 -34 89 -39
100 -5 11 -25 63 -45 115 -20 52 -41 106 -47 120 -6 14 -14 34 -18 45 -4 11
-19 49 -33 85 -14 36 -100 259 -192 495 -92 237 -173 444 -180 460 -8 17 -32
80 -55 140 -23 61 -48 124 -55 140 -7 17 -23 57 -35 90 -12 33 -35 94 -52 135
-17 41 -34 84 -38 95 -4 11 -20 48 -34 83 -14 35 -26 68 -26 73 0 9 -32 87
-51 121 -5 10 -9 23 -9 29 0 6 -12 39 -26 73 -34 79 -116 287 -416 1061 -100
258 -139 356 -154 390 -7 17 -27 68 -44 115 -58 156 -77 203 -188 485 -60 154
-198 507 -307 785 -108 278 -201 514 -206 525 -5 11 -77 193 -160 405 -83 212
-156 399 -164 415 -7 17 -25 62 -40 100 -15 39 -31 79 -35 90 -4 11 -32 79
-60 150 -48 120 -75 183 -118 275 -31 65 -76 129 -100 139 -26 12 -63 12 -167
0z m-546 -2125 c28 -58 51 -107 51 -109 0 -2 20 -46 45 -99 25 -53 45 -101 45
-106 0 -5 8 -24 18 -42 10 -18 35 -76 56 -128 22 -52 48 -115 59 -140 10 -25
24 -56 29 -70 6 -14 14 -34 19 -45 5 -11 18 -44 29 -74 12 -30 29 -73 39 -95
10 -23 53 -129 95 -236 80 -201 110 -279 127 -317 10 -26 16 -42 54 -138 15
-38 31 -79 35 -90 13 -31 159 -412 187 -485 13 -36 28 -74 33 -85 5 -11 25
-65 45 -120 20 -55 40 -109 45 -120 10 -25 40 -106 75 -205 15 -41 34 -93 42
-115 8 -22 26 -71 39 -110 12 -38 33 -97 45 -130 12 -33 25 -73 29 -90 5 -16
23 -77 41 -135 23 -74 32 -126 33 -177 1 -69 0 -73 -33 -107 -71 -73 -201
-116 -446 -148 -145 -19 -1768 -19 -1875 0 -159 28 -257 69 -312 130 -59 65
-63 94 -33 203 28 100 44 150 68 214 9 22 32 87 52 145 45 129 97 270 135 370
15 41 40 109 55 150 35 96 40 110 53 140 26 62 102 264 102 272 0 4 8 27 19
51 10 23 40 98 66 167 42 114 84 224 105 275 4 11 43 110 85 220 42 110 80
209 85 220 5 11 12 31 16 45 3 14 15 43 24 65 10 22 93 234 185 470 92 237
173 444 180 460 13 29 66 170 79 208 11 33 25 16 75 -89z"/>
<path d="M5540 14905 l0 -4945 2446 0 c2226 0 2446 1 2440 16 -3 9 -6 2234 -6
4945 l0 4929 -2440 0 -2440 0 0 -4945z"/>
<path d="M6783 7954 c-2 -6 13 -39 34 -72 60 -94 137 -214 153 -238 8 -12 33
-53 54 -91 22 -37 43 -69 48 -71 4 -2 8 -12 8 -22 0 -10 4 -20 8 -22 5 -1 39
-52 76 -113 38 -60 101 -162 141 -225 117 -185 269 -429 288 -461 9 -17 26
-40 37 -51 11 -12 20 -25 20 -29 0 -4 26 -34 58 -67 70 -73 143 -111 236 -121
132 -14 234 24 321 122 62 68 325 471 325 497 0 5 3 10 8 10 4 0 16 17 27 37
11 21 45 76 76 123 31 47 59 95 63 107 4 11 15 28 26 38 11 10 20 23 20 30 0
6 13 29 30 51 16 21 30 42 30 47 0 7 81 140 175 287 23 36 50 81 61 100 10 19
21 37 24 40 14 12 60 100 53 100 -4 0 -545 1 -1202 3 -877 1 -1195 -1 -1198
-9z"/>
<path d="M19455 5516 c-93 -34 -139 -86 -169 -188 -14 -50 -16 -165 -16 -1148
0 -1113 0 -1123 37 -1210 20 -45 78 -107 123 -128 51 -25 172 -22 225 5 64 33
108 89 134 172 16 49 15 2279 0 2318 -31 76 -41 91 -77 125 -62 58 -181 83
-257 54z"/>
<path d="M21399 5516 c-94 -28 -160 -77 -213 -160 -36 -58 -66 -119 -66 -135
0 -6 -4 -19 -9 -29 -19 -36 -51 -112 -51 -122 0 -6 -4 -18 -9 -28 -17 -31 -48
-107 -55 -132 -7 -26 -13 -39 -39 -100 -9 -19 -25 -62 -37 -95 -12 -33 -30
-79 -41 -102 -10 -24 -19 -50 -19 -58 0 -8 -4 -15 -10 -15 -5 0 -10 -6 -10
-12 0 -12 -38 -118 -66 -185 -8 -18 -20 -48 -28 -65 -33 -81 -86 -225 -86
-236 0 -6 -4 -12 -10 -12 -5 0 -10 -6 -10 -12 0 -12 -66 -188 -95 -253 -7 -16
-30 -75 -51 -130 -20 -55 -41 -104 -45 -109 -5 -6 -9 -16 -9 -23 0 -7 -8 -32
-19 -56 -10 -23 -31 -76 -46 -117 -16 -41 -32 -79 -37 -84 -4 -6 -8 -18 -8
-28 0 -10 -4 -26 -10 -36 -17 -31 -27 -135 -15 -173 17 -60 59 -112 121 -149
52 -31 66 -35 130 -35 78 0 114 13 155 57 27 30 89 143 89 164 0 7 3 14 8 16
7 3 22 40 75 193 18 50 35 92 39 93 5 2 8 11 8 20 0 10 9 40 19 67 l19 50 532
0 c463 0 534 -2 541 -15 5 -8 25 -60 44 -115 20 -55 40 -109 45 -120 23 -57
38 -93 50 -125 7 -19 17 -39 22 -44 4 -6 8 -18 8 -28 0 -10 5 -18 10 -18 6 0
10 -8 10 -17 0 -10 9 -29 20 -43 11 -14 20 -30 20 -36 0 -13 44 -54 85 -79 42
-26 165 -27 218 -1 45 21 110 84 132 128 26 53 19 165 -16 253 -4 11 -17 47
-29 80 -12 33 -28 76 -37 95 -8 19 -19 45 -24 58 -5 12 -13 32 -18 45 -5 12
-15 38 -23 57 -8 19 -21 51 -28 70 -7 19 -19 50 -26 68 -8 17 -20 47 -28 65
-7 17 -25 60 -40 93 -14 34 -26 66 -26 71 0 6 -6 23 -14 39 -31 64 -56 123
-56 133 0 6 -9 30 -19 53 -11 24 -27 61 -36 83 -10 22 -23 53 -31 69 -8 16
-14 33 -14 39 0 5 -12 37 -26 71 -14 33 -31 72 -36 86 -6 14 -14 34 -19 45 -4
11 -20 49 -34 85 -14 36 -30 75 -35 88 -6 12 -14 32 -19 45 -5 12 -16 38 -24
57 -8 19 -27 67 -42 105 -15 39 -34 86 -42 105 -28 65 -32 75 -39 100 -8 28
-34 90 -72 169 -40 84 -132 176 -199 201 -70 26 -192 34 -254 16z m138 -651
c13 -39 26 -79 29 -90 3 -11 10 -31 16 -45 18 -41 25 -62 53 -140 58 -162 80
-220 96 -252 5 -10 9 -27 9 -37 0 -11 4 -22 9 -25 5 -4 12 -24 16 -46 4 -22
11 -40 16 -40 5 0 9 -9 9 -20 0 -11 4 -28 9 -38 14 -28 28 -64 48 -122 10 -30
23 -66 30 -79 7 -14 10 -28 7 -33 -6 -9 -774 -12 -774 -3 0 3 4 13 10 23 5 9
21 53 35 97 15 44 31 91 37 105 20 47 27 65 53 145 15 44 30 89 35 100 4 11
13 36 20 55 7 19 16 44 20 55 20 50 93 253 111 310 7 22 17 44 21 50 4 5 8 14
8 21 0 24 31 85 41 82 6 -2 22 -35 36 -73z"/>
<path d="M5879 5191 c-35 -7 -96 -40 -133 -70 -29 -25 -81 -110 -110 -182 -15
-35 -31 -74 -36 -86 -22 -51 -49 -121 -86 -220 -12 -34 -29 -77 -37 -95 -8
-18 -25 -60 -37 -93 -13 -33 -29 -76 -37 -95 -8 -19 -19 -44 -23 -55 -4 -11
-15 -36 -23 -55 -8 -19 -18 -46 -22 -60 -4 -14 -18 -52 -32 -85 -14 -33 -29
-70 -34 -82 -5 -13 -13 -33 -18 -45 -5 -13 -15 -39 -21 -58 -7 -19 -20 -51
-28 -70 -8 -19 -18 -44 -22 -55 -4 -11 -17 -40 -28 -65 -10 -25 -31 -79 -46
-120 -16 -41 -36 -93 -45 -115 -10 -22 -31 -74 -46 -115 -15 -41 -36 -93 -45
-115 -62 -140 -73 -227 -39 -299 40 -87 112 -130 217 -129 65 0 76 3 110 30
44 35 77 93 127 223 20 52 40 104 45 115 4 11 23 58 41 105 18 47 37 91 42 98
7 9 111 12 457 12 420 0 448 -1 463 -18 10 -10 17 -22 17 -26 0 -8 66 -189 85
-231 7 -16 23 -55 36 -85 74 -178 126 -226 244 -224 41 0 74 8 102 22 92 48
154 168 124 244 -5 13 -15 43 -22 68 -13 45 -243 628 -280 707 -10 24 -19 49
-19 56 0 7 -4 17 -8 22 -5 6 -19 37 -32 70 -25 65 -42 106 -65 158 -8 19 -30
76 -50 127 -20 51 -42 107 -49 124 -8 17 -38 90 -66 161 -29 72 -58 144 -65
160 -7 17 -21 53 -30 80 -66 185 -128 280 -218 333 -50 30 -67 35 -139 38 -46
1 -99 0 -119 -5z m122 -596 c4 -11 21 -58 37 -105 31 -89 58 -161 72 -195 5
-11 16 -41 24 -68 17 -50 71 -198 86 -232 13 -30 80 -221 80 -229 0 -11 -648
-7 -655 5 -6 9 -1 29 25 94 4 11 13 34 18 50 19 55 63 180 72 200 4 11 13 36
20 55 7 19 16 44 20 55 5 11 18 47 29 80 11 33 34 98 51 145 18 47 41 112 51
145 11 33 22 67 26 75 5 14 13 -1 44 -75z"/>
<path d="M14475 5193 c-76 -17 -153 -81 -186 -156 l-24 -52 0 -985 c0 -1071
-2 -1039 56 -1105 45 -51 92 -70 170 -69 98 2 166 51 197 143 9 24 12 231 12
731 0 383 3 700 7 703 3 4 20 -16 37 -43 17 -28 110 -170 206 -318 96 -147
212 -325 259 -397 356 -548 422 -645 484 -711 62 -67 115 -97 189 -108 125
-18 222 28 273 129 l30 60 0 1010 0 1010 -27 51 c-34 64 -91 104 -162 111
-101 10 -174 -28 -217 -114 l-24 -48 -3 -712 c-2 -433 -6 -713 -12 -713 -5 0
-15 10 -21 23 -7 12 -104 162 -217 332 -113 171 -270 409 -350 530 -80 121
-185 279 -234 352 -48 72 -88 135 -88 138 0 15 -99 137 -134 164 -56 45 -142
62 -221 44z"/>
<path d="M8005 5160 c-345 -5 -383 -7 -415 -24 -77 -41 -110 -87 -129 -184
-16 -75 -15 -1851 0 -1924 29 -136 103 -202 229 -202 93 0 153 35 202 114 29
49 32 80 38 442 l5 367 305 4 c193 3 327 9 365 17 238 50 387 133 479 264 80
115 110 204 121 362 20 291 -78 520 -278 648 -159 102 -336 124 -922 116z
m505 -387 c86 -31 122 -55 157 -106 111 -165 68 -405 -87 -488 -86 -46 -241
-69 -477 -69 l-173 0 0 346 0 346 263 -5 c227 -4 269 -7 317 -24z"/>
<path d="M9883 5155 c-89 -14 -139 -39 -170 -85 -53 -82 -53 -70 -53 -1078 0
-679 3 -946 12 -980 18 -74 51 -124 102 -156 42 -26 56 -30 124 -29 127 1 195
53 228 176 11 40 14 141 14 445 l0 392 123 0 c285 0 357 -57 612 -485 253
-423 278 -458 355 -503 38 -23 56 -27 121 -26 64 0 83 5 123 28 55 32 106 105
106 150 0 62 -81 253 -171 404 -115 190 -285 391 -387 456 -47 29 -54 46 -19
46 27 0 139 40 207 74 122 62 219 155 269 259 29 62 61 207 61 281 0 73 -32
211 -65 281 -72 153 -176 241 -370 315 -46 18 -127 30 -235 36 -203 10 -915
10 -987 -1z m908 -366 c107 -17 191 -75 235 -160 20 -40 24 -63 24 -132 0 -97
-14 -139 -65 -195 -84 -94 -245 -125 -613 -120 l-233 3 1 303 c0 166 0 304 0
307 0 10 589 4 651 -6z"/>
<path d="M12259 5154 c-84 -15 -108 -25 -146 -66 -66 -68 -63 -21 -63 -1076 0
-686 3 -965 11 -993 17 -54 65 -108 116 -130 43 -18 80 -19 776 -19 677 0 735
1 766 18 124 63 135 244 19 319 l-43 28 -587 3 -588 3 0 319 0 319 523 3 c475
3 525 5 554 20 84 47 117 160 71 248 -17 32 -35 50 -68 67 -45 22 -45 22 -562
23 l-518 0 0 275 0 274 563 3 c508 3 566 5 599 20 76 36 117 131 92 215 -24
78 -72 117 -160 128 -93 12 -1288 11 -1355 -1z"/>
<path d="M16995 5157 c-110 -15 -173 -58 -204 -143 -21 -54 -21 -71 -21 -998
0 -1057 -2 -1018 69 -1086 21 -20 56 -41 78 -48 65 -19 943 -17 1048 3 116 22
170 40 265 88 69 34 103 61 190 147 74 73 119 128 148 178 23 41 42 76 42 78
0 2 8 23 19 47 47 107 85 262 96 397 29 351 -19 651 -140 869 -82 149 -164
238 -298 327 -79 53 -132 77 -213 97 -115 29 -160 36 -269 42 -170 10 -744 11
-810 2z m690 -377 c219 -29 292 -59 388 -159 64 -66 119 -160 139 -237 26
-105 31 -143 35 -329 5 -234 -5 -308 -64 -465 -33 -87 -68 -145 -121 -202 -55
-59 -89 -81 -178 -114 -66 -24 -80 -26 -356 -31 l-288 -6 0 770 c0 423 3 773
7 776 10 11 350 8 438 -3z"/>
</g>
</svg>
